<?xml version="1.0" encoding="UTF-8" standalone="no"?>
<svg
   viewBox="0 0 16 16"
   version="1.1"
   id="svg8"
   sodipodi:docname="icon.svg"
   width="16"
   height="16"
   inkscape:version="1.2.2 (732a01da63, 2022-12-09)"
   xmlns:inkscape="http://www.inkscape.org/namespaces/inkscape"
   xmlns:sodipodi="http://sodipodi.sourceforge.net/DTD/sodipodi-0.dtd"
   xmlns="http://www.w3.org/2000/svg"
   xmlns:svg="http://www.w3.org/2000/svg">
  <defs
     id="defs12" />
  <sodipodi:namedview
     id="namedview10"
     pagecolor="#ffffff"
     bordercolor="#000000"
     borderopacity="0.25"
     inkscape:showpageshadow="2"
     inkscape:pageopacity="0.0"
     inkscape:pagecheckerboard="0"
     inkscape:deskcolor="#d1d1d1"
     showgrid="false"
     inkscape:zoom="18.318485"
     inkscape:cx="10.180973"
     inkscape:cy="16.049362"
     inkscape:window-width="1920"
     inkscape:window-height="1009"
     inkscape:window-x="1912"
     inkscape:window-y="-8"
     inkscape:window-maximized="1"
     inkscape:current-layer="svg8" />
  <path
     d="M 0,0 H 512 V 512 H 0 Z"
     fill="#010101"
     fill-opacity="0"
     id="path2" />
  <g
     class=""
     id="g6"
     transform="matrix(0.03376453,0,0,0.03376453,-0.84367323,-0.54978676)">
    <path
       d="m 261.938,16.28 c -44.12,0 -84.047,5.327 -113.72,14.282 -14.835,4.478 -27.12,9.802 -36.374,16.407 -9.238,6.59 -16.223,15.3 -16.25,26 l -0.03,0.03 c 0,13.315 1.05,26.348 3.03,39 3.29,-1.478 6.858,-2.368 10.562,-2.5 1.437,-0.05 2.874,0.004 4.344,0.188 11.763,1.47 21.494,9.193 28.688,19.187 7.193,9.994 12.08,22.69 13.437,36.375 1.357,13.686 -1.013,26.1 -7.063,35.594 -2.544,3.994 -5.964,7.404 -9.937,9.937 30.266,41.24 74.044,67.345 123.313,67.345 48.71,0 92.033,-25.536 122.25,-65.97 -4.95,-2.59 -9.168,-6.572 -12.188,-11.31 -6.05,-9.495 -8.42,-21.91 -7.063,-35.595 1.357,-13.686 6.276,-26.38 13.47,-36.375 7.193,-9.994 16.893,-17.718 28.656,-19.188 0.735,-0.09 1.464,-0.157 2.187,-0.187 0.723,-0.03 1.438,-0.026 2.156,0 4.872,0.174 9.506,1.677 13.594,4.094 2.143,-13.137 3.28,-26.702 3.28,-40.563 V 73 C 428.268,62.288 421.278,53.567 412.03,46.97 402.776,40.364 390.492,35.04 375.656,30.563 345.984,21.607 306.056,16.281 261.936,16.281 Z M 152.78,48.72 c -4.477,3.726 -6.936,7.742 -6.936,11.936 0,19.348 51.99,35.032 116.094,35.032 C 326.04,95.688 378,80 378,60.656 c 0,-4.2 -2.48,-8.206 -6.97,-11.937 13.2,4.046 23.653,8.826 30.158,13.468 6.634,4.734 8.406,8.483 8.406,10.843 0,2.36 -1.772,6.11 -8.406,10.845 -6.635,4.734 -17.36,9.62 -30.938,13.72 -27.155,8.194 -65.717,13.468 -108.313,13.468 -42.595,0 -81.157,-5.274 -108.312,-13.47 -13.577,-4.097 -24.303,-8.984 -30.938,-13.718 -6.634,-4.734 -8.406,-8.484 -8.406,-10.844 0,-2.36 1.773,-6.108 8.407,-10.843 6.495,-4.634 16.922,-9.425 30.094,-13.468 z m -43.25,79.405 c -0.522,-0.007 -1.012,0.024 -1.5,0.094 -2.917,0.418 -5.155,2.195 -7.5,5.874 -3.124,4.904 -5.242,13.385 -4.218,23.72 0.818,8.25 3.468,16.2 7.094,22.686 1.035,-8.94 8.625,-15.875 17.844,-15.875 6.984,0 13.026,3.994 16,9.813 0.1,-2.316 0.036,-4.772 -0.22,-7.344 -1.023,-10.334 -4.93,-20.226 -10.03,-27.313 -5.1,-7.086 -11.195,-10.953 -15.813,-11.53 -0.577,-0.072 -1.133,-0.118 -1.656,-0.125 z m 301.5,0 c -0.522,0.007 -1.078,0.053 -1.655,0.125 -4.618,0.577 -10.71,4.444 -15.813,11.53 -5.1,7.088 -9.006,16.98 -10.03,27.314 -0.158,1.58 -0.234,3.105 -0.25,4.594 3.29,-4.295 8.456,-7.063 14.28,-7.063 9.926,0 17.97,8.043 17.97,17.97 0,0.23 -0.023,0.457 -0.032,0.686 4.477,-6.908 7.81,-15.998 8.75,-25.468 1.024,-10.333 -1.094,-18.814 -4.22,-23.718 -2.342,-3.68 -4.58,-5.456 -7.5,-5.875 -0.485,-0.07 -0.976,-0.102 -1.5,-0.095 z m -148.905,11.813 c 11.85,0 22.082,6.965 28.75,16.53 6.668,9.566 10.406,21.998 10.406,35.563 0,13.566 -3.737,25.998 -10.405,35.564 -6.668,9.565 -16.9,16.53 -28.75,16.53 -11.85,0 -22.05,-6.965 -28.72,-16.53 C 226.74,218.028 223,205.597 223,192.03 c 0,-13.564 3.74,-25.996 10.406,-35.56 6.668,-9.567 16.868,-16.532 28.72,-16.532 z m 0,18.687 c -4.606,0 -9.29,2.624 -13.406,8.53 -4.12,5.908 -7.032,14.83 -7.032,24.876 0,4.65 0.64,9.052 1.718,13.032 1.935,-7.837 8.97,-13.656 17.406,-13.656 9.926,0 17.97,8.043 17.97,17.97 0,0.62 -0.033,1.24 -0.094,1.843 2.38,-5.356 3.906,-11.975 3.906,-19.19 0,-10.044 -2.945,-18.967 -7.063,-24.874 -4.116,-5.907 -8.8,-8.53 -13.405,-8.53 z m -39.22,128.72 c -1.274,6.034 -2.6,11.995 -4,17.81 0.5,0.183 1.005,0.357 1.532,0.533 9.685,3.217 24.14,5.437 40.125,5.437 15.77,0 30.07,-2.166 39.75,-5.313 -1.495,-5.43 -2.922,-10.995 -4.312,-16.625 -9.97,2.145 -21.07,3.344 -32.78,3.344 -14.76,0 -28.546,-1.884 -40.314,-5.186 z m -8.655,35.967 c -11.726,42.656 -26.91,77.18 -44.656,95.375 0.498,1.15 1.65,2.71 4.125,4.72 3.802,3.088 10.298,6.512 18.718,9.406 16.838,5.787 41.21,9.625 68.125,9.625 26.913,0 51.317,-3.838 68.156,-9.625 8.418,-2.894 14.914,-6.318 18.717,-9.407 3.163,-2.568 4.162,-4.385 4.407,-5.562 -17.226,-18.314 -33.287,-52.22 -46.28,-94.094 -12.233,3.898 -27.832,6.063 -45.002,6.063 -17.664,0 -33.65,-2.294 -46.03,-6.407 -0.096,-0.03 -0.187,-0.062 -0.282,-0.094 z m 152.563,106.25 c -2,3.152 -4.644,5.948 -7.594,8.344 -6.39,5.19 -14.64,9.226 -24.44,12.594 -19.6,6.737 -45.566,10.625 -74.217,10.625 -28.652,0 -54.588,-3.888 -74.188,-10.625 -9.8,-3.368 -18.05,-7.405 -24.438,-12.594 -2.89,-2.348 -5.484,-5.082 -7.468,-8.156 -0.4,0.18 -0.788,0.398 -1.19,0.563 -11.745,4.817 -21.073,11.418 -23.468,21.53 -4.48,18.93 58.848,38.31 131.875,38.313 73.028,0.002 132.407,-17.273 132.407,-38.312 0,-8.636 -11.4,-13.37 -27.28,-22.28 z"
       fill="#ffffff"
       fill-opacity="1"
       id="path4" />
  </g>
</svg>
